<?xml version="1.0" encoding="UTF-8"?>
<svg version="1.1" xmlns="http://www.w3.org/2000/svg" width="48" height="48">
<path d="M0 0 C5.17585186 3.10152202 9.03546004 7.36616438 11.58984375 12.83984375 C13.03396747 19.53532646 13.02518209 25.0956996 9.6171875 31.171875 C6.50924746 35.4758736 2.24511093 39.10106668 -2.72265625 41.02734375 C-5.50692601 41.43077876 -8.17471432 41.7283612 -10.97265625 41.90234375 C-11.73247803 41.95060303 -12.4922998 41.9988623 -13.27514648 42.04858398 C-19.14002024 42.28620434 -22.83571387 41.45860117 -27.72265625 38.02734375 C-27.72265625 37.36734375 -27.72265625 36.70734375 -27.72265625 36.02734375 C-28.71265625 35.69734375 -29.70265625 35.36734375 -30.72265625 35.02734375 C-34.52798777 29.72131811 -36.58960809 24.07685348 -36.19921875 17.54296875 C-34.72863644 9.78022277 -31.03654448 4.51334092 -24.58984375 0.0859375 C-18.03106504 -3.63253328 -7.0063064 -2.50297029 0 0 Z M-31.72265625 18.02734375 C-30.72265625 22.02734375 -30.72265625 22.02734375 -30.72265625 22.02734375 Z " fill="#FAC380" transform="translate(35.72265625,3.97265625)"/>
<path d="M0 0 C13.53 0 27.06 0 41 0 C38.74176776 6.77469671 38.74176776 6.77469671 35.125 9.75 C34.44695313 10.32234375 33.76890625 10.8946875 33.0703125 11.484375 C27.06080449 15.88378841 21.29063846 15.81197029 14 15 C7.62835508 13.00014065 4.03188642 9.50059461 0.77734375 3.76953125 C0 2 0 2 0 0 Z " fill="#2B2154" transform="translate(6,30)"/>
<path d="M0 0 C4.42971067 2.59730663 7.62264884 5.90053396 10.55859375 10.08203125 C11.05359375 12.06203125 11.05359375 12.06203125 11.55859375 14.08203125 C-1.97140625 14.08203125 -15.50140625 14.08203125 -29.44140625 14.08203125 C-27.14419526 7.19039828 -24.14960287 3.28331675 -17.65625 -0.18359375 C-12.03933643 -2.0459919 -5.5461429 -2.08534973 0 0 Z " fill="#2B2155" transform="translate(35.44140625,3.91796875)"/>
<path d="M0 0 C14.19 0 28.38 0 43 0 C43 2.64 43 5.28 43 8 C28.81 8 14.62 8 0 8 C0 5.36 0 2.72 0 0 Z " fill="#8A85A2" transform="translate(5,20)"/>
<path d="M0 0 C8.25 0 16.5 0 25 0 C22.8900156 4.2199688 22.03558263 5.69395278 18 8 C13.31575618 8.8543134 8.96620018 9.1100063 4.73046875 6.71875 C2.94579261 5.23576046 1.402949 3.84825363 0 2 C0 1.34 0 0.68 0 0 Z " fill="#3F3079" transform="translate(14,30)"/>
<path d="M0 0 C14.19 0 28.38 0 43 0 C43 0.99 43 1.98 43 3 C28.81 3 14.62 3 0 3 C0 2.01 0 1.02 0 0 Z " fill="#3A2F66" transform="translate(5,25)"/>
</svg>
