<?xml version="1.0" encoding="UTF-8"?>
<svg version="1.1" xmlns="http://www.w3.org/2000/svg" width="48" height="48">
<path d="M0 0 C5.82485779 3.51996782 10.54466582 8.98962934 12.5625 15.5 C13.36764105 23.33608208 13.68710392 31.11922577 8.5625 37.5 C3.75801361 42.54521222 -0.59927055 46.10562995 -7.70703125 46.8359375 C-16.22326573 46.92983204 -22.11345494 46.6177288 -28.40234375 40.62890625 C-34.7841668 33.72505269 -35.91792252 28.29832071 -35.7421875 18.9453125 C-35.04689797 11.08319245 -31.38995981 6.95041296 -25.53515625 1.9453125 C-18.47077988 -2.92213491 -7.84396301 -3.47595223 0 0 Z M-10.4375 5.5 C-12.11083158 8.62147545 -13.77501716 11.74773498 -15.4375 14.875 C-15.91445313 15.76445312 -16.39140625 16.65390625 -16.8828125 17.5703125 C-17.33398438 18.42109375 -17.78515625 19.271875 -18.25 20.1484375 C-18.66894531 20.93395996 -19.08789062 21.71948242 -19.51953125 22.52880859 C-20.57822001 24.43976431 -20.57822001 24.43976431 -20.4375 26.5 C-17.7975 26.5 -15.1575 26.5 -12.4375 26.5 C-12.4375 31.12 -12.4375 35.74 -12.4375 40.5 C-10.94710407 38.2644061 -9.7209147 36.1954126 -8.52734375 33.8125 C-8.17736328 33.11382812 -7.82738281 32.41515625 -7.46679688 31.6953125 C-6.92635742 30.60863281 -6.92635742 30.60863281 -6.375 29.5 C-6.01083984 28.77554687 -5.64667969 28.05109375 -5.27148438 27.3046875 C-4.92279297 26.60601563 -4.57410156 25.90734375 -4.21484375 25.1875 C-3.89765381 24.55199219 -3.58046387 23.91648437 -3.25366211 23.26171875 C-2.31828295 21.32877245 -2.31828295 21.32877245 -1.4375 18.5 C-4.0775 18.5 -6.7175 18.5 -9.4375 18.5 C-9.4375 14.21 -9.4375 9.92 -9.4375 5.5 C-9.7675 5.5 -10.0975 5.5 -10.4375 5.5 Z " fill="#039588" transform="translate(35.4375,1.5)"/>
</svg>
