<?xml version="1.0" standalone="no"?>
<!DOCTYPE svg PUBLIC "-//W3C//DTD SVG 20010904//EN"
 "http://www.w3.org/TR/2001/REC-SVG-20010904/DTD/svg10.dtd">
<svg version="1.0" xmlns="http://www.w3.org/2000/svg"
 width="48.000000pt" height="48.000000pt" viewBox="0 0 48.000000 48.000000"
 preserveAspectRatio="xMidYMid meet">

<g transform="translate(0.000000,48.000000) scale(0.100000,-0.100000)"
fill="#000000" stroke="none">
<path d="M63 383 l-39 -68 37 -65 c21 -36 43 -65 49 -65 6 0 28 29 47 65 l36
66 -37 67 c-21 37 -41 67 -46 67 -5 0 -26 -30 -47 -67z"/>
<path d="M324 233 l-37 -67 36 -66 c19 -36 41 -65 47 -65 6 0 28 29 49 65 l37
65 -39 68 c-21 37 -42 67 -47 67 -5 0 -25 -30 -46 -67z"/>
</g>
</svg>
