<?xml version="1.0" encoding="UTF-8"?>
<svg version="1.1" xmlns="http://www.w3.org/2000/svg" width="48" height="48">
<path d="M0 0 C3.5 1 3.5 1 5.3125 3.5 C6.22804666 6.1984533 6.8425985 8.60267506 7.375 11.375 C8.04443232 14.77889314 9.01205842 17.038405 11 19.875 C13.79941687 23.94687908 14.42841536 27.83079374 15.04296875 32.6796875 C15.31239645 35.1838122 15.31239645 35.1838122 17.5 37 C17.9375 40.4375 17.9375 40.4375 17.5 44 C13.65201842 47.11439292 10.47833661 47.38473857 5.625 47.3984375 C3.65273438 47.40423828 3.65273438 47.40423828 1.640625 47.41015625 C0.96064453 47.40387207 0.28066406 47.39758789 -0.41992188 47.39111328 C-2.49415892 47.37504525 -4.56644796 47.39098732 -6.640625 47.41015625 C-7.95546875 47.40628906 -9.2703125 47.40242188 -10.625 47.3984375 C-11.82382813 47.39505371 -13.02265625 47.39166992 -14.2578125 47.38818359 C-17.74915551 46.97016888 -19.66197594 46.02209214 -22.5 44 C-21.89053099 40.44476411 -21.08244911 37.25281205 -19.5 34 C-18.51 33.34 -17.52 32.68 -16.5 32 C-15.14930424 29.26863033 -15.14930424 29.26863033 -14 26.125 C-11.79776219 20.37941801 -11.79776219 20.37941801 -9.84765625 17.89453125 C-8.18555363 15.55795221 -8.23701244 14.38399567 -8.4375 11.5625 C-8.55855946 7.88229245 -8.38442574 5.27294997 -6.5 2 C-3.5 0 -3.5 0 0 0 Z " fill="#DDB01C" transform="translate(26.5,0)"/>
<path d="M0 0 C0.99 0.33 1.98 0.66 3 1 C3 1.66 3 2.32 3 3 C3.66 3 4.32 3 5 3 C5 2.01 5 1.02 5 0 C6.32 0.33 7.64 0.66 9 1 C9.10957031 1.64066406 9.21914063 2.28132812 9.33203125 2.94140625 C10.08974152 7.07493138 10.86603692 10.69456419 12.5625 14.5625 C14.30220001 18.72265221 14.70642302 22.53560524 15 27 C16.98 26.34 18.96 25.68 21 25 C24 29.625 24 29.625 24 33 C20.76065697 35.85351557 17.29879417 37.86470894 13 38.3125 C12.34 38.209375 11.68 38.10625 11 38 C10.67 36.02 10.34 34.04 10 32 C9.1646875 32.495 9.1646875 32.495 8.3125 33 C5.69715478 34.1309601 3.8193354 34.15662974 1 34 C0.7525 33.071875 0.505 32.14375 0.25 31.1875 C-1.06454245 27.83541675 -1.97963384 26.8122197 -5 25 C-4.37017995 17.6940874 -4.37017995 17.6940874 -2.5 14.1875 C-0.33887957 9.59511908 -0.25905789 5.02036328 0 0 Z " fill="#F6F6F6" transform="translate(20,7)"/>
<path d="M0 0 C3.5 1 3.5 1 5.3125 3.5 C6.22804666 6.1984533 6.8425985 8.60267506 7.375 11.375 C8.05416039 14.83465466 9.08847505 17.20638431 11.0625 20.125 C13.47667943 23.73189903 14.58555422 26.55118067 14.5 31 C12.5625 33.4375 12.5625 33.4375 10.5 35 C9.015 34.505 9.015 34.505 7.5 34 C7.33564453 32.80503906 7.33564453 32.80503906 7.16796875 31.5859375 C6.29691706 25.76476281 5.23911711 21.24005012 2.5 16 C1.98055035 13.32434425 1.73466328 10.72209405 1.5 8 C0.51 7.67 -0.48 7.34 -1.5 7 C-1.5 7.99 -1.5 8.98 -1.5 10 C-3.5 10 -3.5 10 -5.125 8.5 C-5.57875 8.005 -6.0325 7.51 -6.5 7 C-6.17 7.99 -5.84 8.98 -5.5 10 C-5.79237945 15.65266939 -7.08091294 19.8492191 -9.5625 24.921875 C-10.47243768 26.93890353 -11.03339982 28.84197416 -11.5 31 C-12.82 31 -14.14 31 -15.5 31 C-14.19967827 26.56708501 -13.05869204 22.76620622 -10.3125 19 C-8.11682429 15.36577813 -8.29292604 13.2431272 -8.48046875 9.1171875 C-8.50617809 6.33029486 -7.88558672 4.40654536 -6.5 2 C-3.5 0 -3.5 0 0 0 Z " fill="#070707" transform="translate(26.5,0)"/>
<path d="M0 0 C0 2.31 0 4.62 0 7 C4.06962402 5.76964855 7.38325151 4.21023519 11 2 C11.66 2 12.32 2 13 2 C12.75 4.375 12.75 4.375 12 7 C7.19116793 10.39272541 0.76906743 9.333524 -4.84448242 9.31567383 C-6.92745363 9.31251523 -9.0090012 9.33598519 -11.09179688 9.36132812 C-12.41115234 9.36197266 -13.73050781 9.36261719 -15.08984375 9.36328125 C-16.29503662 9.36626221 -17.50022949 9.36924316 -18.74194336 9.37231445 C-22.25191081 8.97121289 -24.15172388 8.03457901 -27 6 C-26.67 4.35 -26.34 2.7 -26 1 C-25.67 1.99 -25.34 2.98 -25 4 C-20.619084 5.69262664 -15.67375574 6.30153263 -11 6 C-10.67 5.01 -10.34 4.02 -10 3 C-7.96875 2.05078125 -7.96875 2.05078125 -5.5 1.3125 C-4.6853125 1.06113281 -3.870625 0.80976562 -3.03125 0.55078125 C-1 0 -1 0 0 0 Z " fill="#010100" transform="translate(31,38)"/>
<path d="M0 0 C0.66 0 1.32 0 2 0 C2.33 0.66 2.66 1.32 3 2 C4.98 1.34 6.96 0.68 9 0 C12 4.625 12 4.625 12 8 C10.42578125 9.38671875 10.42578125 9.38671875 8.3125 10.6875 C7.28576172 11.34298828 7.28576172 11.34298828 6.23828125 12.01171875 C3.66154809 13.14943863 1.78707877 13.1805988 -1 13 C-1.02686553 11.02090602 -1.04633375 9.04171029 -1.0625 7.0625 C-1.07410156 5.96035156 -1.08570312 4.85820313 -1.09765625 3.72265625 C-1 1 -1 1 0 0 Z " fill="#FDCE29" transform="translate(32,32)"/>
<path d="M0 0 C0.99 0.33 1.98 0.66 3 1 C3 1.66 3 2.32 3 3 C3.66 3 4.32 3 5 3 C5 2.01 5 1.02 5 0 C6.32 0.33 7.64 0.66 9 1 C9 3.31 9 5.62 9 8 C6.70221327 9.3950848 5.5207033 10.07438619 2.8125 9.6875 C1 9 1 9 0 8 C-0.14115161 5.32941149 -0.04247107 2.67567762 0 0 Z " fill="#C9B260" transform="translate(20,7)"/>
<path d="M0 0 C0.66 0 1.32 0 2 0 C2.33 0.66 2.66 1.32 3 2 C4.32 1.67 5.64 1.34 7 1 C6.67 2.32 6.34 3.64 6 5 C4.68 5.33 3.36 5.66 2 6 C1.67 7.32 1.34 8.64 1 10 C2.98 10 4.96 10 7 10 C5.8125 11.5 5.8125 11.5 4 13 C1.38671875 13.09375 1.38671875 13.09375 -1 13 C-1.02686553 11.02090602 -1.04633375 9.04171029 -1.0625 7.0625 C-1.07410156 5.96035156 -1.08570312 4.85820313 -1.09765625 3.72265625 C-1 1 -1 1 0 0 Z " fill="#D5A007" transform="translate(32,32)"/>
<path d="M0 0 C2.92879371 0.62759865 5.36095629 1.58622659 8 3 C5 5 5 5 2.8125 4.625 C2.214375 4.41875 1.61625 4.2125 1 4 C0.67 2.68 0.34 1.36 0 0 Z " fill="#D7A812" transform="translate(20,12)"/>
<path d="M0 0 C0.33 1.32 0.66 2.64 1 4 C0.01 4 -0.98 4 -2 4 C-2.33 5.98 -2.66 7.96 -3 10 C-3.33 10 -3.66 10 -4 10 C-4.25 6.6875 -4.25 6.6875 -4 3 C-2 1.0625 -2 1.0625 0 0 Z " fill="#DF9903" transform="translate(10,32)"/>
<path d="M0 0 C0.98120464 3.05263664 0.98120464 4.94736336 0 8 C-1.32 8 -2.64 8 -4 8 C-3.34 6.02 -2.68 4.04 -2 2 C-1.34 2 -0.68 2 0 2 C0 1.34 0 0.68 0 0 Z " fill="#0E0E0E" transform="translate(15,23)"/>
<path d="M0 0 C0.66 0.66 1.32 1.32 2 2 C1.625 4.625 1.625 4.625 1 7 C0.01 6.67 -0.98 6.34 -2 6 C-1.34 4.02 -0.68 2.04 0 0 Z " fill="#13110C" transform="translate(36,28)"/>
<path d="M0 0 C1 2 1 2 0.25 4.5625 C-1 7 -1 7 -4 8 C-3.50168276 4.31245243 -2.89932357 2.39509338 0 0 Z " fill="#010101" transform="translate(18,17)"/>
</svg>
