<?xml version="1.0" encoding="UTF-8"?>
<svg version="1.1" xmlns="http://www.w3.org/2000/svg" width="48" height="48">
<path d="M0 0 C1.65 0.33 3.3 0.66 5 1 C6.65 7.27 8.3 13.54 10 20 C11.11375 18.35 12.2275 16.7 13.375 15 C15.2734375 12.1875 15.2734375 12.1875 17 10 C17.66 10 18.32 10 19 10 C19.309375 9.1646875 19.309375 9.1646875 19.625 8.3125 C21.62143247 4.95486357 23.78478875 3.25064788 27 1 C29.375 1.1875 29.375 1.1875 31 2 C31.32114769 5.45233764 31.4847178 7.34749527 29.375 10.1875 C28.59125 11.115625 27.8075 12.04375 27 13 C25.97160802 14.81755909 24.97426125 16.65286001 24 18.5 C21.95070625 22.33598956 19.94131366 25.76455498 17 29 C16.319375 29.763125 15.63875 30.52625 14.9375 31.3125 C13 33 13 33 10 33 C9.34 34.32 8.68 35.64 8 37 C7.34 37 6.68 37 6 37 C5.01 39.475 5.01 39.475 4 42 C3.67 41.34 3.34 40.68 3 40 C3.37125 39.071875 3.7425 38.14375 4.125 37.1875 C5.39137038 34.0422616 5.39137038 34.0422616 3.66015625 31.6328125 C3.11230469 30.76398437 2.56445312 29.89515625 2 29 C-1.38480532 19.90420629 -1.61221686 10.57177514 -1 1 C-0.67 0.67 -0.34 0.34 0 0 Z " fill="#C01F40" transform="translate(9,3)"/>
<path d="M0 0 C1.67542976 0.28604898 3.34385343 0.61781233 5 1 C5.8393758 4.10256512 6.6704505 7.20729444 7.5 10.3125 C7.73847656 11.19357422 7.97695313 12.07464844 8.22265625 12.98242188 C8.44824219 13.82998047 8.67382812 14.67753906 8.90625 15.55078125 C9.11572266 16.33106689 9.32519531 17.11135254 9.54101562 17.9152832 C10.2685485 21.21975298 10.16869062 22.69776264 8.5 25.6875 C8.005 26.450625 7.51 27.21375 7 28 C5.35 27.67 3.7 27.34 2 27 C-1.45400574 18.44722389 -1.56813396 10.07921765 -1 1 C-0.67 0.67 -0.34 0.34 0 0 Z " fill="#B6204A" transform="translate(9,3)"/>
<path d="M0 0 C0.53625 0.268125 1.0725 0.53625 1.625 0.8125 C1.97599077 4.58565072 1.99255366 6.29792488 -0.25 9.4375 C-0.95125 10.22125 -1.6525 11.005 -2.375 11.8125 C-3.08385894 13.12388904 -3.76956452 14.45027017 -4.375 15.8125 C-4.705 15.1525 -5.035 14.4925 -5.375 13.8125 C-7.90233235 13.15694881 -7.90233235 13.15694881 -10.375 12.8125 C-10.375 12.1525 -10.375 11.4925 -10.375 10.8125 C-11.035 10.8125 -11.695 10.8125 -12.375 10.8125 C-12.375 10.1525 -12.375 9.4925 -12.375 8.8125 C-11.715 8.8125 -11.055 8.8125 -10.375 8.8125 C-10.16875 8.255625 -9.9625 7.69875 -9.75 7.125 C-7.60826691 3.52299436 -4.50053589 -0.35530546 0 0 Z " fill="#E05D2A" transform="translate(38.375,4.1875)"/>
<path d="M0 0 C2 3.75 2 3.75 2 6 C3.98 5.67 5.96 5.34 8 5 C7.3125 6.9375 7.3125 6.9375 6 9 C4.33333333 9.33333333 2.66666667 9.66666667 1 10 C-0.36020151 11.96758273 -0.36020151 11.96758273 -1 14 C-1.66 14 -2.32 14 -3 14 C-3.66 15.65 -4.32 17.3 -5 19 C-5.33 18.34 -5.66 17.68 -6 17 C-5.62875 16.071875 -5.2575 15.14375 -4.875 14.1875 C-3.61797925 10.99859065 -3.61797925 10.99859065 -5.375 8.25 C-5.91125 7.5075 -6.4475 6.765 -7 6 C-7 5.34 -7 4.68 -7 4 C-5.35 4 -3.7 4 -2 4 C-1.34 2.68 -0.68 1.36 0 0 Z " fill="#842571" transform="translate(18,26)"/>
<path d="M0 0 C1.67542976 0.28604898 3.34385343 0.61781233 5 1 C5.66 3.97 6.32 6.94 7 10 C4.36 10.66 1.72 11.32 -1 12 C-1.02687279 10.18757948 -1.04633715 8.37504767 -1.0625 6.5625 C-1.07410156 5.55316406 -1.08570313 4.54382813 -1.09765625 3.50390625 C-1 1 -1 1 0 0 Z " fill="#D3402F" transform="translate(9,3)"/>
<path d="M0 0 C0.86625 0.3403125 0.86625 0.3403125 1.75 0.6875 C2.11923077 6.22596154 2.11923077 6.22596154 0.25 8.5625 C-0.4925 9.119375 -0.4925 9.119375 -1.25 9.6875 C-1.25 9.0275 -1.25 8.3675 -1.25 7.6875 C-4.22 7.1925 -4.22 7.1925 -7.25 6.6875 C-6.87492618 3.96821483 -6.40781339 2.84531339 -4.4375 0.875 C-2.25 -0.3125 -2.25 -0.3125 0 0 Z " fill="#E87626" transform="translate(38.25,4.3125)"/>
<path d="M0 0 C2.97 0.495 2.97 0.495 6 1 C6.84454356 4.37817425 7.10844919 6.67465243 6 10 C5.34 10 4.68 10 4 10 C3.34 11.65 2.68 13.3 2 15 C1.67 14.34 1.34 13.68 1 13 C1.37125 12.071875 1.7425 11.14375 2.125 10.1875 C3.38202075 6.99859065 3.38202075 6.99859065 1.625 4.25 C1.08875 3.5075 0.5525 2.765 0 2 C0 1.34 0 0.68 0 0 Z " fill="#782780" transform="translate(11,30)"/>
<path d="M0 0 C2.97 0.99 5.94 1.98 9 3 C8.67 4.32 8.34 5.64 8 7 C7.67 6.34 7.34 5.68 7 5 C4.47266765 4.34444881 4.47266765 4.34444881 2 4 C2 3.34 2 2.68 2 2 C1.34 2 0.68 2 0 2 C0 1.34 0 0.68 0 0 Z " fill="#D6392F" transform="translate(26,13)"/>
<path d="M0 0 C1.65 0.33 3.3 0.66 5 1 C3.25 4.875 3.25 4.875 1 6 C0.34 5.67 -0.32 5.34 -1 5 C-0.67 3.35 -0.34 1.7 0 0 Z " fill="#F69822" transform="translate(9,3)"/>
<path d="M0 0 C0 1.65 0 3.3 0 5 C-1.32 5.33 -2.64 5.66 -4 6 C-4.33 4.68 -4.66 3.36 -5 2 C-2 0 -2 0 0 0 Z " fill="#F39024" transform="translate(38,4)"/>
<path d="M0 0 C1.32 0.33 2.64 0.66 4 1 C3.67 2.32 3.34 3.64 3 5 C2.34 5 1.68 5 1 5 C0.34 6.65 -0.32 8.3 -1 10 C-2 8 -2 8 -1.0625 5 C-0.711875 4.01 -0.36125 3.02 0 2 C0 1.34 0 0.68 0 0 Z " fill="#4E2975" transform="translate(14,35)"/>
<path d="M0 0 C0.66 0.66 1.32 1.32 2 2 C1.67 2.99 1.34 3.98 1 5 C0.67 3.35 0.34 1.7 0 0 Z " fill="#212053" transform="translate(17,40)"/>
<path d="" fill="#462E74" transform="translate(0,0)"/>
</svg>
